<svg xmlns="http://www.w3.org/2000/svg" width="40" height="40" viewBox="0 0 40 40"><path d="M 18.5 20 C 13 16, 14.5 7, 22 5 C 29.5 3, 35.5 9, 33.5 14.5 C 31.8 19.5, 25 22, 19.5 20.3 C 16 24, 14.5 26, 13.5 28 C 5.5 30, 4 36.5, 10.5 37 C 17 37.5, 17.5 31.5, 11.5 31 C 6 30.6, 5 35.5, 10 36.2" fill="none" stroke="#8f8f8f" stroke-width="4.6" stroke-linecap="round" stroke-linejoin="round"/><path d="M 18.5 20 C 13 16, 14.5 7, 22 5 C 29.5 3, 35.5 9, 33.5 14.5 C 31.8 19.5, 25 22, 19.5 20.3 C 16 24, 14.5 26, 13.5 28 C 5.5 30, 4 36.5, 10.5 37 C 17 37.5, 17.5 31.5, 11.5 31 C 6 30.6, 5 35.5, 10 36.2" fill="none" stroke="#ffffff" stroke-width="3" stroke-linecap="round" stroke-linejoin="round"/><path d="M 18.5 20 C 13 16, 14.5 7, 22 5 C 29.5 3, 35.5 9, 33.5 14.5 C 31.8 19.5, 25 22, 19.5 20.3 C 16 24, 14.5 26, 13.5 28 C 5.5 30, 4 36.5, 10.5 37 C 17 37.5, 17.5 31.5, 11.5 31 C 6 30.6, 5 35.5, 10 36.2" fill="none" stroke="#a8a8a8" stroke-width="1.4" stroke-dasharray="2 2.6" stroke-linecap="round" stroke-linejoin="round"/></svg>
